<?xml version="1.0" encoding="UTF-8"?>
<svg id="uuid-0f92df2d-054a-4516-af9d-9069b2c2a193" data-name="レイヤー 2" xmlns="http://www.w3.org/2000/svg" viewBox="0 0 233.88 233.88">
  <defs>
    <style>
      .uuid-a08337b9-4b90-46d9-9460-8b35b092e51b {
        fill: #000;
      }

      .uuid-3d3bee6b-02c2-49e9-abe8-3d945279fb19 {
        fill: #0f6897;
      }
      @media(prefers-color-scheme: dark){
        .uuid-a08337b9-4b90-46d9-9460-8b35b092e51b {
          fill: #fff;
        }

        .uuid-3d3bee6b-02c2-49e9-abe8-3d945279fb19 {
          fill: #6ac3f2;
        }
      }
    </style>
  </defs>
  <g id="uuid-3d472bc9-c680-42a7-a9ce-f69e1a1412fd" data-name="レイヤー 2">
    <g>
      <g>
        <path class="uuid-a08337b9-4b90-46d9-9460-8b35b092e51b" d="M173.21,87.93l-26.88,26.88,.97,2.96,28.12-13.5,.05-.11,.1,.05,4.46-2.14c-1.81-4.87-4.08-9.61-6.82-14.14"/>
        <path class="uuid-a08337b9-4b90-46d9-9460-8b35b092e51b" d="M172.62,107.72l-26.76,12.84,10.49,32.13,28.31-31.28c-.35-2.99-.86-5.97-1.53-8.92l-10.52-4.78"/>
        <path class="uuid-a08337b9-4b90-46d9-9460-8b35b092e51b" d="M219.86,88.97l-1.27,.61c.05,.2,.11,.41,.16,.62l1.11-1.22"/>
        <path class="uuid-a08337b9-4b90-46d9-9460-8b35b092e51b" d="M225.68,63.94h-9.01l-3.54-15.93,1.36-1.36c4.7,4.97,8.52,10.82,11.19,17.29Z"/>
        <path class="uuid-a08337b9-4b90-46d9-9460-8b35b092e51b" d="M227.47,70.94h-15.63c1.86,3.93,3.46,7.94,4.81,12.03l12.09-5.8,.23-.25c-.39-2.03-.89-4.03-1.49-5.97"/>
        <path class="uuid-a08337b9-4b90-46d9-9460-8b35b092e51b" d="M205.77,59.91c1.45,2.3,2.81,4.65,4.07,7.03h1.71l-5.78-7.03"/>
        <path class="uuid-a08337b9-4b90-46d9-9460-8b35b092e51b" d="M185.23,131.56l-23.11,25.53,9,19.03c.76-.73,1.58-1.52,2.44-2.36,7.71-12.97,11.6-27.57,11.67-42.2"/>
        <path class="uuid-a08337b9-4b90-46d9-9460-8b35b092e51b" d="M113.54,220.88c2.12,1.96,3.31,3.05,3.31,3.05,0,0,1.19-1.09,3.3-3.05-1.07,.03-2.14,.05-3.21,.05-1.13,0-2.27-.02-3.4-.05"/>
        <path class="uuid-a08337b9-4b90-46d9-9460-8b35b092e51b" d="M140.6,120.55l-64.91,64.91c11.93,11.31,23.23,21.86,30.96,29.04,9.23-.54,18.39-2.61,27.07-6.2,7.71-7.19,17.31-16.19,27.18-25.57l-20.3-62.18"/>
        <path class="uuid-a08337b9-4b90-46d9-9460-8b35b092e51b" d="M229.33,86.9l-9.11,10.06c1.67,9.13,2.12,18.45,1.36,27.68,4.88-10.22,7.95-22.61,7.95-33.16,0-1.55-.08-3.07-.2-4.59"/>
        <path class="uuid-a08337b9-4b90-46d9-9460-8b35b092e51b" d="M22.53,104.66c-2.35,7.05-3.73,14.34-4.15,21.68,1.63,2.78,3.41,5.31,5.3,7.47,5.07,5.82,13.92,14.81,24.21,24.92l28.07-28.07-53.42-26"/>
        <path class="uuid-a08337b9-4b90-46d9-9460-8b35b092e51b" d="M8.48,97.82c.73,4.78,1.93,9.67,3.53,14.37,.14-4.05,.52-8.09,1.13-12.11l-4.66-2.27"/>
        <path class="uuid-a08337b9-4b90-46d9-9460-8b35b092e51b" d="M91.85,48.22c-17.96,2.13-35.37,10.09-49.15,23.87-8.21,8.21-14.35,17.71-18.43,27.84l36.19,17.62,31.39-69.33"/>
        <path class="uuid-a08337b9-4b90-46d9-9460-8b35b092e51b" d="M55.11,31.05c-12.22,2.61-23.09,8.5-31.44,17.12-9.88,10.19-15.99,24.27-15.99,39.82,0,1.29,.06,2.61,.15,3.95l6.21,3.03c3.96-19.52,13.51-38.13,28.65-53.27,3.92-3.92,8.07-7.47,12.42-10.64"/>
        <path class="uuid-a08337b9-4b90-46d9-9460-8b35b092e51b" d="M121.85,50.09l8.54,26.14,15.79-15.8c-7.62-4.8-15.84-8.25-24.33-10.34"/>
        <path class="uuid-a08337b9-4b90-46d9-9460-8b35b092e51b" d="M101.74,47.64c-1.4,0-2.79,.03-4.18,.1l-32.6,72,14.74,7.17,47.49-47.48-9.82-30.06c-.34,.36-.51,.56-.51,.56,0,0-.33-.39-1.03-1.11-4.66-.79-9.37-1.19-14.09-1.19"/>
        <path class="uuid-a08337b9-4b90-46d9-9460-8b35b092e51b" d="M51.31,197.71l-.11,.11c18.21,14.66,40.19,22.35,62.34,23.06-1.73-1.6-4.07-3.77-6.89-6.39-1.64,.1-3.27,.14-4.91,.14-17.78,0-35.56-5.64-50.42-16.93"/>
        <path class="uuid-a08337b9-4b90-46d9-9460-8b35b092e51b" d="M12,112.19c-.89,24.98,7.09,50.22,23.95,70.59l.09-.09c-12.91-16.41-18.8-36.55-17.67-56.36-2.49-4.25-4.65-9.09-6.37-14.15"/>
        <path class="uuid-a08337b9-4b90-46d9-9460-8b35b092e51b" d="M14.04,94.96c-.35,1.7-.65,3.41-.91,5.12l9.39,4.57c.53-1.59,1.11-3.16,1.73-4.72l-10.22-4.97"/>
        <path class="uuid-a08337b9-4b90-46d9-9460-8b35b092e51b" d="M201.03,53.04l-30.6,30.6c.97,1.41,1.9,2.84,2.78,4.29l14.99-14.99h4.96l3.38,21.2-16.51,7.93c1.27,3.42,2.3,6.91,3.11,10.44l6.8,3.09-5.27,5.82c.39,3.37,.58,6.76,.56,10.14l14.02-15.48,1.47,30.8c-5.92,6.01-18.68,18.65-27.16,26.88-3.48,5.86-7.74,11.38-12.78,16.42-8,8-17.22,14.04-27.06,18.11-5.85,5.45-10.61,9.86-13.56,12.59,25.79-.79,51.35-11.02,71.03-30.7,18.29-18.29,28.42-41.63,30.39-65.53-2.32,4.85-5.04,9.21-8.04,12.66-1.98,2.28-4.55,5.04-7.55,8.16l-1.48-31.15,15.71-17.36c-.42-2.27-.9-4.53-1.47-6.77l-21.28,23.51-14.97-6.8,36.09-17.32c-.57-2.22-1.22-4.43-1.94-6.61l-14.41,6.92-3.02-18.94h12.62c-.64-1.34-1.31-2.68-2-4h-11.42l-.58-3.64,5.88-5.88,2.05,2.49c-1.48-2.34-3.06-4.63-4.74-6.87"/>
        <path class="uuid-a08337b9-4b90-46d9-9460-8b35b092e51b" d="M116.94,10.94c-21.73,0-43.47,6.71-61.83,20.12,2.23-.48,4.51-.85,6.83-1.1,3.13-.34,6.2-.51,9.19-.51,10.37,0,19.71,2.02,26.67,5.65l-5.95,13.13c1.9-.22,3.8-.38,5.71-.48l4.54-10.02c7.61,5.19,11.92,9.24,13.73,11.1,2.02,.34,4.03,.76,6.03,1.26l-1.48-4.54c2.57-2.24,6.31-5.22,11.47-8.66,7.14-4.76,17.73-7.44,29.71-7.44,3,0,6.08,.17,9.22,.51,1.73,.19,3.44,.44,5.12,.76l-29.71,29.71c1.43,.9,2.84,1.85,4.22,2.84l30.57-30.57c-18.82-14.52-41.42-21.77-64.03-21.77"/>
      </g>
      <g>
        <path class="uuid-3d3bee6b-02c2-49e9-abe8-3d945279fb19" d="M193.16,72.94h-4.96l-14.99,14.99c2.74,4.53,5.02,9.27,6.82,14.14l16.51-7.93-3.38-21.2"/>
        <path class="uuid-3d3bee6b-02c2-49e9-abe8-3d945279fb19" d="M183.14,112.5c.67,2.95,1.18,5.92,1.53,8.92l5.27-5.82-6.8-3.09"/>
        <path class="uuid-3d3bee6b-02c2-49e9-abe8-3d945279fb19" d="M218.59,89.58l-36.09,17.32,14.97,6.8,21.28-23.51c-.05-.2-.1-.41-.16-.62"/>
        <path class="uuid-3d3bee6b-02c2-49e9-abe8-3d945279fb19" d="M211.84,70.94h-12.62l3.02,18.94,14.41-6.92c-1.35-4.08-2.95-8.1-4.81-12.03"/>
        <path class="uuid-3d3bee6b-02c2-49e9-abe8-3d945279fb19" d="M203.72,57.42l-5.88,5.88,.58,3.64h11.42c-1.26-2.38-2.61-4.73-4.07-7.03l-2.05-2.49"/>
        <path class="uuid-3d3bee6b-02c2-49e9-abe8-3d945279fb19" d="M199.25,116.08l-14.02,15.48c-.07,14.62-3.96,29.23-11.67,42.2,8.47-8.23,21.24-20.87,27.16-26.88l-1.47-30.8"/>
        <path class="uuid-3d3bee6b-02c2-49e9-abe8-3d945279fb19" d="M133.72,208.3c-8.68,3.59-17.84,5.66-27.07,6.2,2.82,2.62,5.16,4.79,6.89,6.39,1.13,.04,2.26,.05,3.4,.05,1.07,0,2.14-.02,3.21-.05,2.95-2.73,7.71-7.14,13.56-12.59"/>
        <path class="uuid-3d3bee6b-02c2-49e9-abe8-3d945279fb19" d="M220.22,96.97l-15.71,17.36,1.48,31.15c3-3.12,5.56-5.89,7.55-8.16,3-3.44,5.73-7.81,8.04-12.66,.76-9.23,.31-18.55-1.36-27.68"/>
        <path class="uuid-3d3bee6b-02c2-49e9-abe8-3d945279fb19" d="M13.13,100.08c-.61,4.01-.99,8.06-1.13,12.11,1.71,5.06,3.88,9.9,6.37,14.15,.42-7.34,1.8-14.63,4.15-21.68l-9.39-4.57"/>
        <path class="uuid-3d3bee6b-02c2-49e9-abe8-3d945279fb19" d="M71.13,29.44c-2.99,0-6.06,.17-9.19,.51-2.32,.26-4.6,.62-6.83,1.1-4.34,3.17-8.49,6.72-12.42,10.64-15.14,15.14-24.69,33.75-28.65,53.27l10.22,4.97c4.08-10.13,10.22-19.63,18.43-27.84,13.78-13.78,31.19-21.74,49.15-23.87l5.95-13.13c-6.96-3.63-16.29-5.65-26.67-5.65"/>
        <path class="uuid-3d3bee6b-02c2-49e9-abe8-3d945279fb19" d="M161.54,29.44c-11.98,0-22.57,2.69-29.71,7.44-5.16,3.44-8.9,6.42-11.47,8.66l1.48,4.54c8.49,2.1,16.71,5.55,24.33,10.34l29.71-29.71c-1.68-.32-3.39-.57-5.12-.76-3.14-.35-6.22-.51-9.22-.51"/>
        <path class="uuid-3d3bee6b-02c2-49e9-abe8-3d945279fb19" d="M102.09,37.73l-4.54,10.02c1.39-.07,2.79-.1,4.18-.1,4.71,0,9.43,.4,14.09,1.19-1.81-1.86-6.12-5.92-13.73-11.1"/>
        <polygon class="uuid-3d3bee6b-02c2-49e9-abe8-3d945279fb19" points="213.68 0 48.86 164.82 36.68 152.65 28.76 160.57 43.46 175.27 0 218.73 15.15 233.88 58.61 190.41 73.31 205.11 81.23 197.19 69.05 185.02 233.88 20.2 233.88 0 213.68 0"/>
      </g>
    </g>
  </g>
</svg>