<?xml version="1.0" encoding="UTF-8"?>
<svg id="uuid-830775d9-5c11-48ed-9431-21f990b73f30" data-name="レイヤー 2" xmlns="http://www.w3.org/2000/svg" viewBox="0 0 233.88 233.88">
  <defs>
    <style>
      .uuid-caa207bb-00e3-4c19-96ef-1a1d3d65596e {
        fill: #000;
      }
      @media (prefers-color-scheme: dark) {
        .uuid-caa207bb-00e3-4c19-96ef-1a1d3d65596e {
          fill: #fff;
        }
      }
    </style>
  </defs>
  <g id="uuid-74f91364-2667-472a-9ac0-db32e42b30d1" data-name="レイヤー 2">
    <g>
      <polygon class="uuid-caa207bb-00e3-4c19-96ef-1a1d3d65596e" points="196.54 94.14 175.57 104.21 175.47 104.16 175.42 104.27 147.3 117.77 146.33 114.81 188.2 72.94 193.16 72.94 196.54 94.14"/>
      <polygon class="uuid-caa207bb-00e3-4c19-96ef-1a1d3d65596e" points="189.94 115.6 172.62 107.72 145.86 120.57 156.36 152.7 189.94 115.6"/>
      <polygon class="uuid-caa207bb-00e3-4c19-96ef-1a1d3d65596e" points="219.86 88.97 182.5 106.9 197.47 113.7 219.86 88.97"/>
      <path class="uuid-caa207bb-00e3-4c19-96ef-1a1d3d65596e" d="M225.68,63.94h-9.01l-3.54-15.93,1.36-1.36c4.7,4.97,8.52,10.82,11.19,17.29Z"/>
      <path class="uuid-caa207bb-00e3-4c19-96ef-1a1d3d65596e" d="M228.96,76.91c-.39-2.03-.89-4.03-1.49-5.97h-28.25l3.02,18.94,26.5-12.72,.23-.25Z"/>
      <polygon class="uuid-caa207bb-00e3-4c19-96ef-1a1d3d65596e" points="211.55 66.94 198.42 66.94 197.84 63.3 203.72 57.42 211.55 66.94"/>
      <path class="uuid-caa207bb-00e3-4c19-96ef-1a1d3d65596e" d="M199.25,116.08l-37.13,41.01,9,19.03c8.25-7.95,23.07-22.63,29.6-29.25l-1.47-30.8Z"/>
      <path class="uuid-caa207bb-00e3-4c19-96ef-1a1d3d65596e" d="M160.9,182.73c-22.72,21.59-44.05,41.21-44.05,41.21,0,0-19.55-17.99-41.16-38.48l64.91-64.91,20.3,62.18Z"/>
      <path class="uuid-caa207bb-00e3-4c19-96ef-1a1d3d65596e" d="M204.51,114.33l1.48,31.15c3-3.12,5.56-5.89,7.55-8.16,9.32-10.7,15.99-30.27,15.99-45.82,0-1.55-.08-3.07-.2-4.59l-24.82,27.42Z"/>
      <path class="uuid-caa207bb-00e3-4c19-96ef-1a1d3d65596e" d="M75.95,130.66l-28.07,28.07c-10.29-10.11-19.14-19.1-24.21-24.92-7.44-8.54-13.17-22.71-15.19-35.99l67.47,32.84Z"/>
      <path class="uuid-caa207bb-00e3-4c19-96ef-1a1d3d65596e" d="M60.45,117.55L97.79,35.09c-8.96-4.68-21.86-6.68-35.86-5.14-14.99,1.65-28.39,8.03-38.27,18.22-9.88,10.19-15.99,24.27-15.99,39.82,0,1.29,.06,2.61,.15,3.95l52.62,25.62Z"/>
      <path class="uuid-caa207bb-00e3-4c19-96ef-1a1d3d65596e" d="M175.89,30.72l-45.5,45.51-10.02-30.68c2.57-2.24,6.31-5.22,11.47-8.66,8.93-5.95,23.25-8.66,38.93-6.93,1.73,.19,3.44,.44,5.12,.76Z"/>
      <path class="uuid-caa207bb-00e3-4c19-96ef-1a1d3d65596e" d="M127.18,79.44l-47.49,47.48-14.74-7.17L102.09,37.73c10.55,7.19,14.76,12.21,14.76,12.21,0,0,.17-.2,.51-.56l9.82,30.06Z"/>
      <polygon class="uuid-caa207bb-00e3-4c19-96ef-1a1d3d65596e" points="81.23 197.19 69.05 185.02 233.88 20.19 233.88 0 213.68 0 48.86 164.82 36.68 152.65 28.76 160.57 43.46 175.27 0 218.73 15.15 233.88 58.61 190.41 73.31 205.11 81.23 197.19"/>
    </g>
  </g>
</svg>